<svg xmlns="http://www.w3.org/2000/svg" viewBox="0 0 800 600" width="800" height="600">
  <defs>
    <linearGradient id="prsky" x1="0" y1="0" x2="0" y2="1">
      <stop offset="0%" stop-color="#6a7a5a"/>
      <stop offset="40%" stop-color="#8a9a6a"/>
      <stop offset="70%" stop-color="#a0aa78"/>
      <stop offset="100%" stop-color="#b8b888"/>
    </linearGradient>
    <linearGradient id="prground" x1="0" y1="0" x2="0" y2="1">
      <stop offset="0%" stop-color="#8a7a50"/>
      <stop offset="40%" stop-color="#7a6a40"/>
      <stop offset="100%" stop-color="#5a4a28"/>
    </linearGradient>
  </defs>
  <!-- Warm sky -->
  <rect width="800" height="600" fill="url(#prsky)"/>
  <!-- Warm light glow -->
  <ellipse cx="600" cy="150" rx="200" ry="150" fill="#c8a840" opacity="0.1"/>
  <!-- Surrounding forest - left dense -->
  <path d="M0,150 l10,-70 l8,48 l12,-75 l10,58 l8,-65 l12,45 l10,-72 l8,55 l12,-68 l10,50 l8,-60 l12,42 l10,-68 l8,52 l12,-65 l10,48 l8,-58 l12,40 l10,-65 l8,50 L280,180 L280,450 L0,450Z" fill="#1a3a18"/>
  <!-- Forest right -->
  <path d="M580,180 l10,-70 l8,48 l12,-75 l10,58 l8,-65 l12,45 l10,-72 l8,55 l12,-68 l10,50 l8,-60 l12,42 l10,-68 l8,52 L800,150 L800,450 L580,450Z" fill="#1a3a18"/>
  <!-- Mid-ground trees (sparser, clearing edge) -->
  <path d="M220,200 l8,-50 l6,35 l10,-55 l8,42 l6,-48 l10,32 l8,-52 l6,38 L330,220 L330,350 L220,350Z" fill="#1e3e1c" opacity="0.8"/>
  <path d="M520,220 l8,-50 l6,35 l10,-55 l8,42 l6,-48 l10,32 l8,-52 l6,38 L640,200 L640,350 L520,350Z" fill="#1e3e1c" opacity="0.8"/>
  <!-- Clearing ground -->
  <path d="M200,320 Q300,300 400,305 Q500,300 600,320 Q700,340 800,380 L800,600 L0,600 L0,380 Q100,340 200,320Z" fill="url(#prground)"/>
  <!-- Ground texture - disturbed earth -->
  <path d="M220,340 Q350,330 450,335 Q550,330 680,345" stroke="#7a6a48" stroke-width="1.5" fill="none" opacity="0.4"/>
  <path d="M180,370 Q330,360 450,365 Q570,360 720,375" stroke="#7a6a48" stroke-width="1" fill="none" opacity="0.3"/>
  <!-- Excavator - larger and more detailed -->
  <!-- Tracks -->
  <rect x="310" y="380" width="200" height="40" rx="16" fill="#2a2520"/>
  <rect x="318" y="384" width="184" height="32" rx="14" fill="#3a3530" stroke="#2a2520" stroke-width="2"/>
  <!-- Track roller details -->
  <circle cx="340" cy="400" r="10" fill="#2a2520"/>
  <circle cx="340" cy="400" r="5" fill="#3a3530"/>
  <circle cx="380" cy="400" r="10" fill="#2a2520"/>
  <circle cx="380" cy="400" r="5" fill="#3a3530"/>
  <circle cx="420" cy="400" r="10" fill="#2a2520"/>
  <circle cx="420" cy="400" r="5" fill="#3a3530"/>
  <circle cx="460" cy="400" r="10" fill="#2a2520"/>
  <circle cx="460" cy="400" r="5" fill="#3a3530"/>
  <circle cx="490" cy="400" r="10" fill="#2a2520"/>
  <circle cx="490" cy="400" r="5" fill="#3a3530"/>
  <!-- Drive sprocket -->
  <circle cx="322" cy="400" r="14" fill="#2a2520"/>
  <circle cx="322" cy="400" r="8" fill="#3a3530"/>
  <!-- Idler -->
  <circle cx="498" cy="400" r="14" fill="#2a2520"/>
  <circle cx="498" cy="400" r="8" fill="#3a3530"/>
  <!-- Track links -->
  <line x1="330" y1="384" x2="330" y2="416" stroke="#2a2520" stroke-width="2.5"/>
  <line x1="350" y1="384" x2="350" y2="416" stroke="#2a2520" stroke-width="2.5"/>
  <line x1="370" y1="384" x2="370" y2="416" stroke="#2a2520" stroke-width="2.5"/>
  <line x1="390" y1="384" x2="390" y2="416" stroke="#2a2520" stroke-width="2.5"/>
  <line x1="410" y1="384" x2="410" y2="416" stroke="#2a2520" stroke-width="2.5"/>
  <line x1="430" y1="384" x2="430" y2="416" stroke="#2a2520" stroke-width="2.5"/>
  <line x1="450" y1="384" x2="450" y2="416" stroke="#2a2520" stroke-width="2.5"/>
  <line x1="470" y1="384" x2="470" y2="416" stroke="#2a2520" stroke-width="2.5"/>
  <line x1="490" y1="384" x2="490" y2="416" stroke="#2a2520" stroke-width="2.5"/>
  <!-- Upper carriage / turntable -->
  <rect x="330" y="340" width="160" height="45" rx="4" fill="#c8a020"/>
  <!-- Engine housing -->
  <rect x="330" y="310" width="80" height="35" rx="3" fill="#b89018"/>
  <!-- Engine vents -->
  <rect x="338" y="315" width="8" height="6" rx="1" fill="#2a2520"/>
  <rect x="350" y="315" width="8" height="6" rx="1" fill="#2a2520"/>
  <rect x="362" y="315" width="8" height="6" rx="1" fill="#2a2520"/>
  <!-- Counterweight -->
  <rect x="330" y="330" width="30" height="15" rx="2" fill="#a88018"/>
  <!-- Cab -->
  <rect x="420" y="288" width="70" height="57" rx="4" fill="#c8a020"/>
  <rect x="425" y="293" width="40" height="35" rx="2" fill="#5a7a8a" opacity="0.7"/>
  <!-- Cab roof -->
  <rect x="416" y="280" width="78" height="12" rx="2" fill="#b89018"/>
  <!-- Boom -->
  <path d="M415,320 L412,314 L250,220 L245,228Z" fill="#c8a020" stroke="#b89018" stroke-width="1"/>
  <!-- Stick -->
  <path d="M250,220 L245,228 L160,310 L155,304Z" fill="#c8a020" stroke="#b89018" stroke-width="1"/>
  <!-- Bucket -->
  <path d="M155,304 L160,310 L140,348 L105,358 L95,342 L120,318 L145,300Z" fill="#3a3530"/>
  <!-- Bucket teeth -->
  <path d="M105,358 L100,374 L110,374 L115,358" fill="#5a5550"/>
  <path d="M115,356 L110,372 L120,372 L125,356" fill="#5a5550"/>
  <path d="M125,353 L120,369 L130,369 L135,353" fill="#5a5550"/>
  <path d="M135,349 L130,365 L140,365 L145,349" fill="#5a5550"/>
  <!-- Hydraulic cylinders -->
  <line x1="400" y1="330" x2="320" y2="240" stroke="#6a6560" stroke-width="5"/>
  <line x1="265" y1="228" x2="200" y2="280" stroke="#6a6560" stroke-width="4"/>
  <line x1="170" y1="308" x2="145" y2="330" stroke="#5a5550" stroke-width="3"/>
  <!-- Pivot points -->
  <circle cx="415" cy="318" r="5" fill="#4a4540"/>
  <circle cx="248" cy="224" r="4" fill="#4a4540"/>
  <circle cx="158" cy="307" r="3.5" fill="#4a4540"/>
  <!-- Dirt being scooped -->
  <path d="M80,350 Q100,330 130,340 Q150,328 170,345 Q185,340 195,358 L195,380 Q160,375 130,378 Q100,375 80,380Z" fill="#7a6040"/>
  <!-- Dirt pile nearby -->
  <path d="M550,370 Q580,340 620,350 Q650,335 680,355 Q700,348 720,370 L720,400 Q680,395 640,398 Q600,395 570,398 Q555,396 550,400Z" fill="#7a6040"/>
  <!-- Foreground -->
  <path d="M0,480 Q200,470 400,475 Q600,470 800,480 L800,600 L0,600Z" fill="#5a4a28" opacity="0.5"/>
  <!-- Tree stumps in clearing -->
  <ellipse cx="300" cy="360" rx="10" ry="5" fill="#5a4a30"/>
  <rect x="294" y="354" width="12" height="8" fill="#6a5a38"/>
  <ellipse cx="520" cy="355" rx="8" ry="4" fill="#5a4a30"/>
  <rect x="515" y="350" width="10" height="7" fill="#6a5a38"/>
  <!-- Warm atmosphere overlay -->
  <rect width="800" height="600" fill="#c8a040" opacity="0.05"/>
</svg>